<svg version="1.2" xmlns="http://www.w3.org/2000/svg" viewBox="0 0 46 46" width="46" height="46"><defs><clipPath clipPathUnits="userSpaceOnUse" id="cp1"><path d="m-2536-92h2732v3336h-2732z"/></clipPath></defs><style>.a{fill:#1f1e1d;stroke:#fff;stroke-width:.4}</style><g clip-path="url(#cp1)"><path fill-rule="evenodd" class="a" d="m22.8 43.2c-11.3 0-20.4-9.1-20.4-20.3 0-11.3 9.1-20.4 20.4-20.4 11.2 0 20.3 9.1 20.3 20.4 0 11.2-9.1 20.3-20.3 20.3zm0-2.9c3.5 0 6.9-1.1 9.8-3q-0.3-0.7-0.6-1.4c-1.7-3.5-5.2-5.7-9.1-5.8-3.9 0-7.5 2.1-9.4 5.5q-0.3 0.8-0.6 1.6c2.9 2 6.3 3.1 9.9 3.1zm12.2-5c5.1-5 6.7-12.5 4-19-2.7-6.6-9-10.9-16.1-10.9-7.1 0-13.5 4.3-16.2 10.9-2.6 6.5-1.1 14 4 19q0.2-0.5 0.4-1c2.4-4.4 6.9-7 11.8-6.9 5 0 9.4 2.8 11.7 7.1 0.1 0.3 0.3 0.6 0.3 0.8zm-12.3-9.5c-4 0-7.2-3.2-7.2-7.3 0-4 3.2-7.2 7.2-7.2 4 0 7.3 3.2 7.3 7.2 0 4.1-3.3 7.3-7.3 7.3zm4.4-7.3c0-2.4-2-4.3-4.4-4.3-2.4 0-4.3 1.9-4.3 4.3 0 2.4 1.9 4.4 4.3 4.4 2.4 0 4.4-2 4.4-4.4z"/></g></svg>