<svg version="1.2" xmlns="http://www.w3.org/2000/svg" viewBox="0 0 50 42" width="50" height="42"><defs><clipPath clipPathUnits="userSpaceOnUse" id="cp1"><path d="m-2366-92h2732v3336h-2732z"/></clipPath></defs><style>.a{fill:#1f1e1d;stroke:#fff;stroke-width:.4}</style><g clip-path="url(#cp1)"><path fill-rule="evenodd" class="a" d="m24.9 39.6l-18.7-18.7c-4-4.2-3.9-10.9 0.3-14.9 4.1-4 10.5-4 14.6 0l3.8 3.7 3.7-3.7c4.2-4.1 10.9-4 15 0.2 3.9 4.1 3.9 10.6 0 14.7zm-11.3-33.6c-2 0-3.9 0.7-5.3 2.1-2.9 3-2.9 7.7 0 10.6l16.6 16.6 16.4-16.5c2.9-3 2.8-7.8-0.2-10.7-2.9-2.8-7.5-2.8-10.4 0l-5.8 6-6-6c-1.4-1.3-3.3-2.1-5.3-2.1z"/></g></svg>